<svg width="477" height="482" viewBox="0 0 477 482" fill="none" xmlns="http://www.w3.org/2000/svg">
<g style="mix-blend-mode:plus-darker" filter="url(#filter0_d_2334_72)">
<path d="M367.942 38.9625C414.195 69.5812 448.097 115.605 463.625 168.856C479.152 222.108 475.3 279.14 452.753 329.82C430.206 380.5 390.423 421.547 340.473 445.668C290.522 469.789 233.639 475.422 179.928 461.567L238.5 234.5L367.942 38.9625Z" fill="url(#paint0_linear_2334_72)"/>
</g>
<g style="mix-blend-mode:plus-darker">
<path d="M4 234.5C4.00001 172.307 28.7062 112.661 72.6835 68.6834C116.661 24.7062 176.307 -7.41647e-07 238.5 0V234.5L4 234.5Z" fill="url(#paint1_linear_2334_72)"/>
</g>
<g style="mix-blend-mode:plus-darker" filter="url(#filter1_d_2334_72)">
<path d="M4 234.5C4 274.197 14.0777 313.245 33.2889 347.984C52.5001 382.723 80.2159 412.017 113.839 433.12L238.5 234.5L4 234.5Z" fill="url(#paint2_linear_2334_72)"/>
</g>
<circle cx="238.976" cy="233.976" r="180.976" fill="url(#paint3_linear_2334_72)"/>
<g filter="url(#filter2_i_2334_72)">
<circle cx="238.567" cy="233.567" r="159.567" fill="white"/>
</g>
<rect x="128" y="167.564" width="12.7118" height="138.21" rx="6.35592" transform="rotate(-56.2044 128 167.564)" fill="black"/>
<rect x="242.291" y="241.424" width="12.7118" height="111.599" rx="6.35592" transform="rotate(-125 242.291 241.424)" fill="black"/>
<path d="M159.125 281.781C159.125 280.031 159.719 278.562 160.906 277.375C162.156 276.125 163.656 275.5 165.406 275.5H219.969C221.719 275.5 223.219 276.094 224.469 277.281C225.656 278.531 226.25 280.031 226.25 281.781C226.25 283.531 225.625 285.031 224.375 286.281C223.188 287.469 221.719 288.062 219.969 288.062H199.062V326.031C198.688 329.781 196.625 331.812 192.875 332.125C191.125 332.125 189.594 331.562 188.281 330.438C187.031 329.25 186.406 327.781 186.406 326.031V288.062H165.406C163.656 288.062 162.188 287.438 161 286.188C159.75 285 159.125 283.531 159.125 281.781ZM255.969 272.969C258.156 272.969 260.281 273.344 262.344 274.094C264.469 274.844 266.5 275.938 268.438 277.375C268.75 277.688 269.094 278 269.469 278.312C269.781 278 270.125 277.688 270.5 277.375C272.438 275.938 274.438 274.844 276.5 274.094C278.625 273.344 280.75 272.969 282.875 272.969C285.062 272.969 287.188 273.344 289.25 274.094C291.375 274.844 293.375 275.969 295.25 277.469C297.188 278.906 298.875 280.844 300.312 283.281C301.812 285.719 302.562 288.625 302.562 292V325.844C302.188 329.594 300.125 331.625 296.375 331.938C294.625 331.938 293.094 331.375 291.781 330.25C290.531 329.062 289.906 327.594 289.906 325.844V292.75C289.906 291.25 289.625 290 289.062 289C288.5 287.938 287.875 287.125 287.188 286.562C286.5 285.938 285.781 285.5 285.031 285.25C284.281 284.938 283.531 284.781 282.781 284.781C282.031 284.781 281.281 284.938 280.531 285.25C279.844 285.5 279.156 285.938 278.469 286.562C277.781 287.125 277.156 287.938 276.594 289C276.031 290 275.719 291.25 275.656 292.75V325.844C275.281 329.594 273.219 331.625 269.469 331.938C267.719 331.938 266.188 331.375 264.875 330.25C263.625 329.062 263 327.594 263 325.844V292.75C263 291.25 262.719 290 262.156 289C261.594 287.938 260.969 287.125 260.281 286.562C259.594 285.938 258.875 285.5 258.125 285.25C257.375 284.938 256.625 284.781 255.875 284.781C255.125 284.781 254.375 284.938 253.625 285.25C252.938 285.5 252.25 285.938 251.562 286.562C250.875 287.125 250.25 287.938 249.688 289C249.125 290 248.812 291.25 248.75 292.75V325.844C248.438 329.594 246.406 331.625 242.656 331.938C240.906 331.938 239.375 331.375 238.062 330.25C236.812 329.062 236.188 327.594 236.188 325.844V292C236.312 288.625 237.094 285.719 238.531 283.281C239.969 280.844 241.656 278.906 243.594 277.469C245.531 275.969 247.531 274.844 249.594 274.094C251.719 273.344 253.844 272.969 255.969 272.969Z" fill="url(#paint4_linear_2334_72)"/>
<path d="M240.774 228.334H236.226L235.409 208.604L238.5 206.49L241.591 208.604L240.774 228.334Z" fill="url(#paint5_linear_2334_72)"/>
<path d="M234.272 181.124L235.264 205.081L238.5 203.32L241.736 205.081L242.728 181.124L238.5 179.01L234.272 181.124Z" fill="url(#paint6_linear_2334_72)"/>
<path d="M233.193 155.053L234.126 177.601L238.5 175.487L242.873 177.601L243.806 155.053L238.5 152.587L233.193 155.053Z" fill="url(#paint7_linear_2334_72)"/>
<path d="M231.677 118.413L233.048 151.53L238.5 149.064L243.952 151.53L245.323 118.413L238.5 114.89L231.677 118.413Z" fill="url(#paint8_linear_2334_72)"/>
<path d="M262 122.936L238.5 110.605L215 122.936L238.5 87L262 122.936Z" fill="url(#paint9_linear_2334_72)"/>
<circle cx="238.719" cy="233.719" r="14.719" fill="#37A6E5"/>
<defs>
<filter id="filter0_d_2334_72" x="175.928" y="38.9624" width="301.072" height="443.038" filterUnits="userSpaceOnUse" color-interpolation-filters="sRGB">
<feFlood flood-opacity="0" result="BackgroundImageFix"/>
<feColorMatrix in="SourceAlpha" type="matrix" values="0 0 0 0 0 0 0 0 0 0 0 0 0 0 0 0 0 0 127 0" result="hardAlpha"/>
<feOffset dy="9"/>
<feGaussianBlur stdDeviation="2"/>
<feComposite in2="hardAlpha" operator="out"/>
<feColorMatrix type="matrix" values="0 0 0 0 0 0 0 0 0 0 0 0 0 0 0 0 0 0 0.25 0"/>
<feBlend mode="normal" in2="BackgroundImageFix" result="effect1_dropShadow_2334_72"/>
<feBlend mode="normal" in="SourceGraphic" in2="effect1_dropShadow_2334_72" result="shape"/>
</filter>
<filter id="filter1_d_2334_72" x="0" y="234.5" width="242.5" height="211.62" filterUnits="userSpaceOnUse" color-interpolation-filters="sRGB">
<feFlood flood-opacity="0" result="BackgroundImageFix"/>
<feColorMatrix in="SourceAlpha" type="matrix" values="0 0 0 0 0 0 0 0 0 0 0 0 0 0 0 0 0 0 127 0" result="hardAlpha"/>
<feOffset dy="9"/>
<feGaussianBlur stdDeviation="2"/>
<feComposite in2="hardAlpha" operator="out"/>
<feColorMatrix type="matrix" values="0 0 0 0 0 0 0 0 0 0 0 0 0 0 0 0 0 0 0.25 0"/>
<feBlend mode="normal" in2="BackgroundImageFix" result="effect1_dropShadow_2334_72"/>
<feBlend mode="normal" in="SourceGraphic" in2="effect1_dropShadow_2334_72" result="shape"/>
</filter>
<filter id="filter2_i_2334_72" x="79" y="74" width="323.134" height="323.134" filterUnits="userSpaceOnUse" color-interpolation-filters="sRGB">
<feFlood flood-opacity="0" result="BackgroundImageFix"/>
<feBlend mode="normal" in="SourceGraphic" in2="BackgroundImageFix" result="shape"/>
<feColorMatrix in="SourceAlpha" type="matrix" values="0 0 0 0 0 0 0 0 0 0 0 0 0 0 0 0 0 0 127 0" result="hardAlpha"/>
<feOffset dx="8" dy="10"/>
<feGaussianBlur stdDeviation="2"/>
<feComposite in2="hardAlpha" operator="arithmetic" k2="-1" k3="1"/>
<feColorMatrix type="matrix" values="0 0 0 0 0 0 0 0 0 0 0 0 0 0 0 0 0 0 0.25 0"/>
<feBlend mode="normal" in2="shape" result="effect1_innerShadow_2334_72"/>
</filter>
<linearGradient id="paint0_linear_2334_72" x1="329.49" y1="4.18712e-06" x2="238.5" y2="469" gradientUnits="userSpaceOnUse">
<stop stop-color="#7AF7FF"/>
<stop offset="0.601" stop-color="#2F76FF"/>
<stop offset="1" stop-color="#2EB0F8"/>
</linearGradient>
<linearGradient id="paint1_linear_2334_72" x1="329.49" y1="4.18712e-06" x2="238.5" y2="469" gradientUnits="userSpaceOnUse">
<stop stop-color="#7AF7FF"/>
<stop offset="1" stop-color="#0359FF"/>
</linearGradient>
<linearGradient id="paint2_linear_2334_72" x1="217.76" y1="-5.69179e-07" x2="238.5" y2="469" gradientUnits="userSpaceOnUse">
<stop offset="0.530871" stop-color="#BEFBFF"/>
<stop offset="1" stop-color="#0094FF"/>
</linearGradient>
<linearGradient id="paint3_linear_2334_72" x1="238.976" y1="53" x2="238.976" y2="414.953" gradientUnits="userSpaceOnUse">
<stop offset="0.0001" stop-color="#837F7F"/>
<stop offset="1" stop-color="#312F2F"/>
</linearGradient>
<linearGradient id="paint4_linear_2334_72" x1="262" y1="248" x2="262" y2="440" gradientUnits="userSpaceOnUse">
<stop offset="0.131987" stop-color="#676767"/>
<stop offset="0.483742" stop-color="#010101"/>
</linearGradient>
<linearGradient id="paint5_linear_2334_72" x1="238.5" y1="114.89" x2="238.5" y2="228.334" gradientUnits="userSpaceOnUse">
<stop stop-color="#EF3016"/>
<stop offset="1" stop-color="#EED916"/>
</linearGradient>
<linearGradient id="paint6_linear_2334_72" x1="238.5" y1="114.89" x2="238.5" y2="228.334" gradientUnits="userSpaceOnUse">
<stop stop-color="#EF3016"/>
<stop offset="1" stop-color="#EED916"/>
</linearGradient>
<linearGradient id="paint7_linear_2334_72" x1="238.5" y1="114.89" x2="238.5" y2="228.334" gradientUnits="userSpaceOnUse">
<stop stop-color="#EF3016"/>
<stop offset="1" stop-color="#EED916"/>
</linearGradient>
<linearGradient id="paint8_linear_2334_72" x1="238.5" y1="114.89" x2="238.5" y2="228.334" gradientUnits="userSpaceOnUse">
<stop stop-color="#EF3016"/>
<stop offset="1" stop-color="#EED916"/>
</linearGradient>
<linearGradient id="paint9_linear_2334_72" x1="238.5" y1="87" x2="238.5" y2="122.936" gradientUnits="userSpaceOnUse">
<stop offset="0.281" stop-color="#EF3016"/>
<stop offset="1" stop-color="#FF7A00"/>
</linearGradient>
</defs>
</svg>
